<svg width="35" height="35" viewBox="0 0 35 35" fill="none" xmlns="http://www.w3.org/2000/svg">
<path d="M17.4979 0L0 17.4979L17.4979 34.9958L34.9958 17.4979L17.4979 0ZM3.57032 17.4979L17.4979 3.57032L31.4255 17.4979L17.4979 31.4255L3.57032 17.4979Z" fill="white"/>
<path d="M17.4979 6.96173C13.4282 6.96173 9.72476 11.9843 9.72476 17.4979C9.72476 23.0115 13.4282 28.0341 17.4979 28.0341C21.5676 28.0341 25.2711 23.0115 25.2711 17.4979C25.2711 11.9843 21.5676 6.96173 17.4979 6.96173ZM12.2548 17.4979C12.2548 15.0761 13.1911 12.6834 14.5102 11.1521C14.3853 11.7055 14.3187 12.2756 14.3187 12.8582C14.3187 14.9471 15.1343 16.9112 16.6074 18.3884C18.5382 20.3192 18.6631 23.3777 16.9861 25.4542C14.5226 24.9923 12.2548 21.2805 12.2548 17.4979ZM20.4815 23.8521C21.0474 21.3221 20.3567 18.5674 18.3926 16.6033C16.4618 14.6725 16.3369 11.614 18.0139 9.53752C20.4732 10.0036 22.7452 13.7154 22.7452 17.4979C22.7452 19.9281 21.8048 22.3249 20.4815 23.8521Z" fill="white"/>
</svg>
